<svg width="20" height="20" viewBox="0 0 20 20" fill="none" xmlns="http://www.w3.org/2000/svg">
<path d="M1.66699 6.9811C1.66699 6.68917 1.66699 6.5432 1.67917 6.42026C1.79666 5.23447 2.73472 4.29642 3.9205 4.17893C4.04345 4.16675 4.19729 4.16675 4.50498 4.16675C4.62354 4.16675 4.68282 4.16675 4.73315 4.1637C5.37583 4.12478 5.93862 3.71915 6.17878 3.12175C6.19759 3.07496 6.21517 3.02222 6.25033 2.91675C6.28548 2.81127 6.30306 2.75853 6.32187 2.71175C6.56203 2.11435 7.12482 1.70872 7.7675 1.6698C7.81784 1.66675 7.87343 1.66675 7.98461 1.66675H12.016C12.1272 1.66675 12.1828 1.66675 12.2331 1.6698C12.8758 1.70872 13.4386 2.11435 13.6788 2.71175C13.6976 2.75853 13.7152 2.81127 13.7503 2.91675C13.7855 3.02222 13.8031 3.07496 13.8219 3.12175C14.062 3.71915 14.6248 4.12478 15.2675 4.1637C15.3178 4.16675 15.3771 4.16675 15.4957 4.16675C15.8034 4.16675 15.9572 4.16675 16.0802 4.17893C17.2659 4.29642 18.204 5.23447 18.3215 6.42026C18.3337 6.5432 18.3337 6.68917 18.3337 6.9811V13.5001C18.3337 14.9002 18.3337 15.6003 18.0612 16.1351C17.8215 16.6055 17.439 16.9879 16.9686 17.2276C16.4339 17.5001 15.7338 17.5001 14.3337 17.5001H5.66699C4.26686 17.5001 3.5668 17.5001 3.03202 17.2276C2.56161 16.9879 2.17916 16.6055 1.93948 16.1351C1.66699 15.6003 1.66699 14.9002 1.66699 13.5001V6.9811Z" stroke="#862CF9" stroke-width="1.5" stroke-linecap="round" stroke-linejoin="round"/>
<path d="M10.0003 13.7501C11.8413 13.7501 13.3337 12.2577 13.3337 10.4167C13.3337 8.5758 11.8413 7.08341 10.0003 7.08341C8.15938 7.08341 6.66699 8.5758 6.66699 10.4167C6.66699 12.2577 8.15938 13.7501 10.0003 13.7501Z" stroke="#862CF9" stroke-width="1.5" stroke-linecap="round" stroke-linejoin="round"/>
</svg>
