<svg width="20" height="20" viewBox="0 0 20 20" fill="none" xmlns="http://www.w3.org/2000/svg">
<path d="M3.5604 17.2733L9.05752 11.7761C9.38753 11.4461 9.55254 11.2811 9.74281 11.2193C9.91018 11.1649 10.0905 11.1649 10.2578 11.2193C10.4481 11.2811 10.6131 11.4461 10.9431 11.7761L16.4036 17.2366M11.667 12.5L14.0575 10.1095C14.3875 9.77946 14.5525 9.61445 14.7428 9.55263C14.9102 9.49825 15.0905 9.49825 15.2578 9.55263C15.4481 9.61445 15.6131 9.77946 15.9431 10.1095L18.3337 12.5M8.33366 7.5C8.33366 8.42047 7.58747 9.16667 6.66699 9.16667C5.74652 9.16667 5.00033 8.42047 5.00033 7.5C5.00033 6.57953 5.74652 5.83333 6.66699 5.83333C7.58747 5.83333 8.33366 6.57953 8.33366 7.5ZM5.66699 17.5H14.3337C15.7338 17.5 16.4339 17.5 16.9686 17.2275C17.439 16.9878 17.8215 16.6054 18.0612 16.135C18.3337 15.6002 18.3337 14.9001 18.3337 13.5V6.5C18.3337 5.09987 18.3337 4.3998 18.0612 3.86502C17.8215 3.39462 17.439 3.01217 16.9686 2.77248C16.4339 2.5 15.7338 2.5 14.3337 2.5H5.66699C4.26686 2.5 3.5668 2.5 3.03202 2.77248C2.56161 3.01217 2.17916 3.39462 1.93948 3.86502C1.66699 4.3998 1.66699 5.09987 1.66699 6.5V13.5C1.66699 14.9001 1.66699 15.6002 1.93948 16.135C2.17916 16.6054 2.56161 16.9878 3.03202 17.2275C3.5668 17.5 4.26686 17.5 5.66699 17.5Z" stroke="#862CF9" stroke-width="1.5" stroke-linecap="round" stroke-linejoin="round"/>
</svg>
